<svg xmlns="http://www.w3.org/2000/svg" width="24" height="24"><path fill="#1c1c1c" d="M12.006 6.124a5.825 5.825 0 1 0 5.848 5.826 5.834 5.834 0 0 0-5.847-5.826m2.659 8.019c-.057.072-.142.156-.214.241a3.448 3.448 0 0 1-2.461 1.016 3.322 3.322 0 0 1-2.43-1.025 2.9 2.9 0 0 1-.443-.513c-.043-.085-.114-.171-.157-.27a3.57 3.57 0 0 1-.356-.94h.013c0-.029-.013-.057-.013-.085a.967.967 0 0 1-.044-.285.755.755 0 0 0-.013-.171v-.314a.734.734 0 0 0 .013-.169.124.124 0 0 1 .015-.072 1.115 1.115 0 0 1 .043-.3 2.427 2.427 0 0 1 .129-.455 3.6 3.6 0 0 1 .214-.486c.043-.085.114-.184.172-.285a3.313 3.313 0 0 1 .443-.526 3.355 3.355 0 0 1 2.415-1 3.468 3.468 0 0 1 2.673 1.253 3.4 3.4 0 0 1 0 4.388m-11.963-1H1.154a1.21 1.21 0 0 1-1.158-1.154 1.192 1.192 0 0 1 1.143-1.225h1.558a1.19 1.19 0 0 1 0 2.379m3.617 4.515a1.189 1.189 0 0 1-.043 1.681L5.126 20.48a1.2 1.2 0 0 1-1.686-.042 1.176 1.176 0 0 1 .043-1.681l1.1-1.1-.257-.256.3.213a1.186 1.186 0 0 1 1.687.042m6.875 3.562v1.623a1.2 1.2 0 0 1-.373.826 1.116 1.116 0 0 1-.857.327 1.2 1.2 0 0 1-.829-.37 1.163 1.163 0 0 1-.329-.868v-1.548a1.19 1.19 0 0 1 1.185-1.183H12a1.194 1.194 0 0 1 1.187 1.2m7.331-2.465a1.19 1.19 0 0 1-1.686 1.681l-1.1-1.1a1.174 1.174 0 0 1 0-1.681 1.209 1.209 0 0 1 1.686 0Zm3.474-6.851a1.183 1.183 0 0 1-1.138 1.223h-1.543a1.182 1.182 0 0 1-.015-2.364h1.6a1.187 1.187 0 0 1 1.1 1.139m-6.215-5.683a1.181 1.181 0 0 1-.043-1.665l1.1-1.1a1.136 1.136 0 0 1 .844-.341 1.183 1.183 0 0 1 .842.341 1.2 1.2 0 0 1 0 1.681l-1.1 1.082a1.185 1.185 0 0 1-1.643 0m-6.975-3.544V1.154A1.188 1.188 0 0 1 11.963 0h.043a1.173 1.173 0 0 1 1.187 1.14v1.552a1.172 1.172 0 0 1-.343.826 1.392 1.392 0 0 1-.844.342h-.015a1.189 1.189 0 0 1-1.185-1.181M3.488 5.142a1.177 1.177 0 0 1 0-1.681 1.18 1.18 0 0 1 1.687 0l1.1 1.1a1.19 1.19 0 0 1-1.687 1.68Z"/></svg>