<svg xmlns="http://www.w3.org/2000/svg" width="18" height="18"><path fill="#fff" d="M9 0a9 9 0 1 0 9 9 9 9 0 0 0-9-9Zm0 16.258A7.258 7.258 0 1 1 16.258 9 7.265 7.265 0 0 1 9 16.258Zm0-5.226a4.1 4.1 0 0 0-3.15 1.473.872.872 0 0 0 1.339 1.118 2.433 2.433 0 0 1 3.622 0 .872.872 0 0 0 1.339-1.118A4.1 4.1 0 0 0 9 11.032ZM7.258 8.419a.871.871 0 0 0 .25-1.706l-2.9-.871a.871.871 0 1 0-.5 1.669l1.023.308a1.12 1.12 0 0 0-.192.6 1.161 1.161 0 1 0 2.323 0Zm7.222-1.992a.87.87 0 0 0-1.085-.584l-2.9.871a.871.871 0 0 0 .25 1.706 1.161 1.161 0 1 0 2.323 0 1.12 1.12 0 0 0-.192-.6l1.023-.308a.866.866 0 0 0 .584-1.081Z"/></svg>