<svg xmlns="http://www.w3.org/2000/svg" width="18" height="18"><path fill="#fff" d="M9 0a9 9 0 1 0 9 9 9 9 0 0 0-9-9Zm0 16.258A7.258 7.258 0 1 1 16.258 9 7.265 7.265 0 0 1 9 16.258Zm3.832-5.494A13.47 13.47 0 0 1 9 11.239a13.488 13.488 0 0 1-3.832-.475.5.5 0 0 0-.642.555c.287 1.709 2.587 2.9 4.475 2.9s4.184-1.194 4.475-2.9a.5.5 0 0 0-.642-.555ZM4.315 9.283a.434.434 0 0 0 .555.091l2.9-1.742a.437.437 0 0 0 0-.748l-2.9-1.742a.436.436 0 0 0-.559.653L5.53 7.258 4.311 8.721a.434.434 0 0 0 .004.562Zm8.815.091a.436.436 0 0 0 .559-.653L12.47 7.258 13.689 5.8a.434.434 0 0 0 0-.562.443.443 0 0 0-.555-.091l-2.9 1.742a.437.437 0 0 0 0 .748l2.9 1.742Z"/></svg>