<svg xmlns="http://www.w3.org/2000/svg" width="40" height="40"><defs><linearGradient id="a" x1=".1" x2=".972" y1=".913" y2=".025" gradientUnits="objectBoundingBox"><stop offset="0" stop-color="#ffd521"/><stop offset=".491" stop-color="#f20007"/><stop offset="1" stop-color="#b900b4"/></linearGradient></defs><path fill="url(#a)" fill-rule="evenodd" d="M20 0A20 20 0 1 1 0 20 20 20 0 0 1 20 0Z" data-name="Caminho 658"/><path fill="#fff" d="M20.002 14.302a5.7 5.7 0 1 0 5.7 5.7 5.687 5.687 0 0 0-5.7-5.7Zm0 9.4a3.7 3.7 0 1 1 3.7-3.7 3.71 3.71 0 0 1-3.7 3.7Zm7.258-9.633a1.329 1.329 0 1 1-1.329-1.329 1.326 1.326 0 0 1 1.329 1.329Zm3.773 1.348a6.575 6.575 0 0 0-1.795-4.655 6.618 6.618 0 0 0-4.655-1.795c-1.834-.1-7.332-.1-9.167 0a6.609 6.609 0 0 0-4.655 1.79 6.6 6.6 0 0 0-1.794 4.656c-.1 1.834-.1 7.332 0 9.167a6.575 6.575 0 0 0 1.795 4.655 6.627 6.627 0 0 0 4.655 1.795c1.834.1 7.332.1 9.167 0a6.575 6.575 0 0 0 4.655-1.795 6.618 6.618 0 0 0 1.795-4.655c.1-1.834.1-7.327 0-9.162Zm-2.37 11.135a3.749 3.749 0 0 1-2.112 2.112c-1.462.58-4.933.446-6.549.446s-5.091.129-6.549-.446a3.749 3.749 0 0 1-2.112-2.112c-.58-1.467-.447-4.938-.447-6.554s-.128-5.091.447-6.546a3.749 3.749 0 0 1 2.112-2.115c1.462-.58 4.933-.446 6.549-.446s5.091-.129 6.549.446a3.749 3.749 0 0 1 2.112 2.115c.58 1.462.446 4.933.446 6.549s.134 5.089-.446 6.551Z"/></svg>